<mxfile host="app.diagrams.net" modified="2023-10-11T13:44:44.828Z" agent="Mozilla/5.0 (Macintosh; Intel Mac OS X 10_15_7) AppleWebKit/605.1.15 (KHTML, like Gecko) Version/17.0 Safari/605.1.15" version="22.0.4" etag="_-YUaLECT6rXly_emsOJ" type="github">
  <diagram name="ページ1" id="sF0OkfUshAwuo1KSSuQR">
    <mxGraphModel>
      <root>
        <mxCell id="0" />
        <mxCell id="1" parent="0" />
      </root>
    </mxGraphModel>
  </diagram>
</mxfile>
